<svg width="97" height="96" viewBox="0 0 97 96" fill="none" xmlns="http://www.w3.org/2000/svg">
<path d="M-nan -nanL53.3801 20.9169C52.9558 20.8403 50.9067 20.4977 48.502 20.4977C46.0973 20.4977 44.0483 20.8403 43.6239 20.9169C43.3814 20.9572 43.2844 20.7234 43.4704 20.5824C46.5087 18.4182 50.5573 18.3284 53.5296 20.5824C53.7196 20.7234 53.6266 20.9612 53.3801 20.9169L-nan -nanZM-nan -nanL44.9819 44.8766C44.9819 44.8766 44.8513 44.9234 44.7526 45.0314C44.6751 45.1161 44.7191 45.2399 44.8055 45.3155C45.7486 46.1419 46.4798 47.7501 48.502 47.7501C50.4512 47.7501 51.2044 46.2592 52.0981 45.4057C52.2413 45.2689 52.256 44.9901 52.0789 44.9014C51.9978 44.8607 51.9754 44.8874 51.8863 44.9049C51.4954 44.9815 50.2809 45.1869 48.502 45.1869C46.3115 45.1869 44.9819 44.8766 44.9819 44.8766L-nan -nanZM-nan -nanL48.502 41.8861C47.912 41.8861 47.7826 41.6645 47.3785 41.6645C47.065 41.6645 46.5009 41.8731 46.2226 42.1046C46.122 42.1882 46.0852 42.3265 46.1357 42.4472C46.1923 42.5826 46.3387 42.6445 46.4816 42.6779C47.1919 42.8438 47.5981 43.2403 48.502 43.2403C49.4092 43.2403 49.8124 42.8442 50.5245 42.6782C50.6685 42.6446 50.8151 42.5806 50.8704 42.4436C50.9183 42.3248 50.8828 42.1895 50.7846 42.1072C50.5081 41.8757 49.9435 41.6678 49.6256 41.6645C49.2214 41.6645 49.0921 41.8861 48.502 41.8861L-nan -nanZM-nan -nanL96.9475 51.0348C96.9124 51.6928 96.8638 52.3501 96.8018 53.0061C96.7193 53.8774 96.0458 54.5998 95.1708 54.5838C91.4465 54.5156 89.3771 51.6915 85.7857 50.9255C84.6671 50.687 83.8543 51.7926 84.0937 52.9109C84.2743 53.7545 85.0175 54.3596 85.8616 54.5378C88.6841 55.1336 90.5138 57.2879 93.3486 57.9444C94.6495 58.2456 95.7702 59.4304 95.4267 60.7207C95.2223 61.4881 94.5472 62.0686 93.761 61.9566C91.1776 61.5888 89.6337 59.3905 86.8451 58.6738C85.7697 58.3974 84.8917 59.3713 84.8917 60.4816C84.8795 61.1587 85.2934 61.7706 85.9263 62.0114L91.7378 64.2223C93.0156 64.7084 93.6689 66.1366 93.1292 67.3927C92.7293 68.3237 91.7353 68.9295 90.8571 68.424C89.3172 67.5376 88.1241 65.7659 85.5725 65.5332C84.9737 65.4786 84.4828 65.9507 84.3828 66.5436C84.2422 67.3774 84.9258 68.1314 85.7384 68.3654C87.0586 68.7456 87.9206 69.6723 88.8234 70.4338C89.7591 71.2232 90.439 72.7509 89.7937 73.7912C89.329 74.5403 88.374 74.7504 87.7234 74.1555C86.8627 73.3684 85.9178 72.4015 84.5897 71.9215C83.8832 71.6662 83.3637 70.9267 83.5662 70.2033C83.7646 69.4947 83.2186 68.8085 82.4895 68.7087C81.0214 68.5078 79.4893 67.9977 78.0297 67.1386C76.5793 66.285 76.1338 64.4603 75.5487 62.8823C74.1799 59.1904 69.5219 55.6227 69.5219 52.9088C69.5219 49.2574 71.3729 47.2383 71.3729 42.3174C71.3729 38.662 69.5946 34.7003 66.911 31.9919C66.6276 31.7034 66.2981 32.0362 66.5261 32.3703C68.3388 35.027 69.6067 38.0646 69.6067 41.4831C69.6067 46.1179 67.4445 48.5642 67.4445 52.8443C67.4445 57.1204 73.721 60.8242 73.721 65.2332C73.721 69.5246 73.3472 74.448 77.4157 75.8128C78.4306 76.1533 79.3796 76.3285 80.1793 76.3285C80.9472 76.3285 81.3634 76.0947 81.6383 75.4942C82.0651 74.5588 83.04 73.8832 83.9631 74.3361C84.7883 74.7409 85.4417 75.3793 86.0419 75.9863C86.7614 76.7139 86.9252 77.9448 86.281 78.7398C85.6143 79.5625 84.4146 79.5338 83.6789 78.7722C83.1133 78.1868 82.4594 77.619 81.693 77.2514C81.2576 77.0426 80.7633 77.2716 80.5331 77.6962C80.2092 78.2938 80.5214 79.0667 81.0762 79.4595C81.55 79.795 81.9698 80.218 82.3468 80.6525C82.9844 81.3871 82.9085 82.5058 82.2083 83.181C82.1972 83.1917 82.1861 83.2023 82.175 83.213C81.3404 84.0162 80.0055 83.8064 79.2081 82.9662C79.019 82.767 78.8211 82.5762 78.6163 82.4005C78.2272 82.0667 77.6554 82.1817 77.3389 82.5851C76.976 83.0475 77.0698 83.7298 77.4776 84.1532C77.6791 84.3624 77.8713 84.5876 78.0515 84.8188C78.593 85.5135 78.3992 86.4998 77.6955 87.0295C77.569 87.1248 77.442 87.2194 77.3145 87.3135C76.4272 87.9683 75.1211 87.4012 74.638 86.41C73.3548 83.7772 70.7979 81.458 69.8699 78.6822C69.6974 78.1662 68.5276 77.9365 68.5276 78.4806C68.5276 82.3016 72.3039 85.3902 73.1461 89.0834C73.27 89.6268 72.9867 90.1649 72.5022 90.4403C71.5765 90.9663 70.3937 90.3008 70.0857 89.2817C68.9223 85.4325 65.6622 81.4778 65.6622 78.3879C65.6622 74.2569 71.0859 70.1058 71.0859 65.2332C71.0859 60.3567 64.8256 56.9753 64.8256 52.6952C64.8256 48.4151 67.489 45.9526 67.489 40.4635C67.489 36.4453 65.5733 32.3788 62.6149 29.7834C62.2878 29.4886 61.9487 29.8662 62.2084 30.2218C64.2239 32.981 65.3632 35.7354 65.3632 39.5889C65.3632 44.7476 62.3118 47.6091 62.3118 52.663C62.3118 57.7169 68.4549 60.5219 68.4549 65.2373C68.4549 69.9446 62.7362 73.9103 62.7362 78.7506C62.7362 82.8512 67.1113 86.9448 67.7708 91.7061C67.859 92.3427 67.4698 92.9329 66.8748 93.1759C65.784 93.6214 64.5924 92.6931 64.3586 91.5382C63.4584 87.0902 59.4545 82.6726 59.4545 79.0569C59.4545 74.3537 65.3834 70.3073 65.3834 65.2332C65.3834 60.1552 59.3575 57.7975 59.3575 52.5864C59.3575 47.3793 63.0555 44.4977 63.0555 38.7426C63.0434 36.6128 62.5452 34.5137 61.5984 32.6045C60.6517 30.6953 59.2813 29.0263 57.5914 27.7239L57.3852 27.5708C57.0781 27.3451 56.8275 27.6151 57.0457 27.8851C59.3413 30.7466 60.5699 33.6363 60.5699 37.9204C60.5699 43.1798 56.3183 47.4559 56.3183 52.5582C56.3183 58.5753 62.0249 60.2962 62.0249 65.2332C62.0249 70.1703 55.906 74.1199 55.906 79.3592C55.906 83.8926 60.9443 88.8922 60.8157 94.0966C60.7986 94.7885 60.2744 95.3406 59.6005 95.4983C58.4173 95.7752 57.3599 94.7389 57.2891 93.5258C56.9548 87.7965 52.5759 83.4397 52.5759 79.4277C52.5759 74.4786 58.9129 70.0695 58.9129 65.2332C58.9129 60.6751 54.3662 59.1839 53.7681 54.5169C53.6873 53.8801 53.174 53.4086 52.4667 53.5254C51.5412 53.6947 50.3571 54.2992 48.498 54.2992C46.6389 54.2992 45.4547 53.6947 44.5292 53.5254C43.826 53.4086 43.3127 53.8801 43.2319 54.5169C42.6338 59.1839 38.083 60.671 38.083 65.2373C38.083 70.0695 44.4201 74.4786 44.4201 79.4237C44.4201 83.4394 40.044 87.7967 39.708 93.5263C39.6369 94.7386 38.5788 95.7734 37.3962 95.4973C36.7221 95.34 36.1973 94.7881 36.1803 94.0961C36.0521 88.8924 41.0899 83.8962 41.0899 79.3592C41.0899 74.1199 34.9711 70.1703 34.9711 65.2332C34.9711 60.2962 40.6777 58.5753 40.6777 52.5582C40.6777 47.4559 36.426 43.1839 36.426 37.9164C36.426 33.6363 37.6546 30.7426 39.9543 27.8811C40.1685 27.6151 39.9179 27.3451 39.6107 27.5708L39.4086 27.7239C37.7196 29.025 36.35 30.6928 35.404 32.6006C34.4579 34.5085 33.9602 36.6062 33.9486 38.7345C33.9486 44.4897 37.6466 47.3713 37.6466 52.5824C37.6466 57.7894 31.6166 60.1511 31.6166 65.2292C31.6166 70.2992 37.5455 74.3456 37.5455 79.0529C37.5455 82.6685 33.5445 87.0862 32.6451 91.5341C32.4117 92.6888 31.22 93.6168 30.1293 93.1716C29.5344 92.9287 29.1451 92.3387 29.2331 91.7021C29.8917 86.9371 34.2638 82.8434 34.2638 78.7426C34.2638 73.9063 28.5491 69.9365 28.5491 65.2292C28.5491 60.5179 34.6882 57.7088 34.6882 52.6549C34.6882 47.605 31.6409 44.7395 31.6409 39.5809C31.6409 35.7233 32.7805 32.9738 34.7966 30.216C35.0588 29.8572 34.7188 29.4773 34.3891 29.7753C32.8821 31.1241 31.6711 32.7692 30.8323 34.6072C29.9935 36.4451 29.545 38.4363 29.5151 40.4554C29.5151 45.9446 32.1784 48.4071 32.1784 52.6872C32.1784 56.9713 25.9181 60.3446 25.9181 65.2252C25.9181 70.1018 31.3418 74.2529 31.3418 78.3799C31.3418 81.473 28.079 85.4282 26.917 89.2751C26.6089 90.2951 25.4302 90.962 24.5044 90.4344C24.0193 90.1579 23.7337 89.618 23.8577 89.0736C24.6984 85.3842 28.4764 82.2927 28.4764 78.4725C28.4764 77.9242 27.3063 78.1545 27.1324 78.6745C26.206 81.4434 23.6588 83.759 22.3721 86.3828C21.8824 87.3813 20.5629 87.9532 19.668 87.293C19.546 87.203 19.4245 87.1125 19.3034 87.0214C18.5999 86.4923 18.4077 85.5062 18.9492 84.8123C19.1285 84.5826 19.3196 84.3588 19.5202 84.1509C19.9295 83.7265 20.0245 83.041 19.6604 82.5772C19.3441 82.1741 18.7728 82.0587 18.3841 82.3926C18.1785 82.5692 17.9799 82.761 17.7901 82.9614C16.9942 83.8015 15.6614 84.0102 14.8269 83.2084C14.8156 83.1976 14.8044 83.1868 14.7931 83.176C14.0921 82.5012 14.0148 81.3825 14.6525 80.6476C15.0305 80.212 15.4515 79.7881 15.9263 79.4521C16.4814 79.0593 16.7929 78.2853 16.4679 77.688C16.2372 77.2637 15.7423 77.0356 15.3073 77.2454C14.5421 77.6143 13.888 78.1826 13.3221 78.7682C12.5864 79.5293 11.3845 79.554 10.7188 78.731C10.0764 77.9367 10.2414 76.7108 10.9589 75.9836C11.5607 75.3736 12.2151 74.7317 13.0441 74.326C13.9664 73.8746 14.935 74.5501 15.3658 75.4821C15.6406 76.0866 16.0528 76.3204 16.8207 76.3204C17.622 76.3204 18.5719 76.1451 19.5872 75.8044C23.6544 74.4396 23.2871 69.5154 23.2871 65.2252C23.2871 60.8161 29.5595 57.1164 29.5595 52.8363C29.5595 48.5602 27.3973 46.1139 27.3973 41.4791C27.3973 38.058 28.6647 35.023 30.4768 32.3654C30.7062 32.029 30.3745 31.6938 30.089 31.9839C27.4094 34.7003 25.6271 38.662 25.6271 42.3133C25.6271 47.2343 27.4822 49.2574 27.4822 52.9088C27.4822 55.6223 22.8255 59.1893 21.4559 62.8785C20.8703 64.456 20.4238 66.2801 18.9739 67.1341C17.5139 67.994 15.9824 68.5057 14.5147 68.7078C13.7841 68.8084 13.2373 69.4969 13.4354 70.2073C13.6367 70.9296 13.1168 71.6657 12.4116 71.9204C11.0812 72.4007 10.1358 73.3711 9.27164 74.1585C8.62117 74.7511 7.66824 74.5394 7.20384 73.792C6.55699 72.7508 7.2368 71.2228 8.17428 70.4332C9.07888 69.6713 9.94211 68.7445 11.265 68.3648C12.0781 68.1313 12.762 67.3772 12.6213 66.543C12.5213 65.9503 12.0307 65.4782 11.4321 65.5323C8.88012 65.7627 7.68488 67.5355 6.14438 68.423C5.26561 68.9292 4.27088 68.3227 3.87145 67.3905C3.33348 66.135 3.98629 64.7086 5.26268 64.2222L11.0739 62.0079C11.7067 61.7668 12.1205 61.1547 12.1083 60.4776C12.1083 59.3633 11.2261 58.3896 10.1473 58.6684C7.36406 59.3875 5.81859 61.5806 3.2378 61.9511C2.4505 62.0641 1.77338 61.4778 1.57004 60.7089C1.2292 59.42 2.34862 58.2402 3.64728 57.9387C6.47882 57.2813 8.31157 55.1294 11.132 54.5338C11.9787 54.355 12.7224 53.7538 12.9027 52.9074C13.1408 51.7901 12.3308 50.6798 11.2136 50.918C7.57595 51.6936 5.49837 54.5767 1.6917 54.5771C0.898863 54.5771 0.287996 53.9256 0.210867 53.1365C0.103249 52.0355 1.06096 51.1581 2.1622 51.0527C6.52652 50.6352 8.95794 47.4021 13.078 47.1154C14.0006 47.0512 14.872 46.5501 15.251 45.7065C15.8289 44.4202 15.0743 42.8692 13.6697 42.9939C10.8385 43.2453 8.76378 44.6395 6.52961 45.7341C3.07487 47.4266 0.0173387 44.0674 0.659315 40.2743C4.52865 17.4122 24.4749 0 48.502 0C72.5302 0 92.477 17.4137 96.3421 40.2802C96.9832 44.0729 93.9264 47.434 90.4717 45.7425C88.2365 44.6481 86.1621 43.2522 83.33 42.9994C81.9256 42.8741 81.1688 44.4212 81.7471 45.7071C82.1266 46.5507 82.9996 47.0551 83.9224 47.1196C88.6581 47.4507 91.1663 51.6806 96.9475 51.0348L-nan -nanZM-nan -nanL27.6479 30.7426C26.1757 30.143 24.5758 29.8474 22.945 29.8727C19.4892 29.9265 15.2832 28.0555 12.9847 25.4744C12.3797 24.7949 11.7027 24.1914 10.9646 23.6816C10.5968 23.4277 10.2169 23.6655 10.2492 24.0927C10.5075 27.42 9.74945 30.5463 8.34811 33.4905C5.9853 38.4546 6.92322 41.8217 12.1869 40.2346C15.3922 39.268 19.527 38.272 21.8065 35.8201C23.5639 33.9297 25.5213 32.2268 27.6479 30.7426L-nan -nanZM-nan -nanL48.502 26.3617C43.9998 26.3617 40.225 28.9008 39.2389 32.1854C39.1581 32.4353 39.2632 32.6005 39.5541 32.4675C40.3624 32.1048 41.2879 31.9315 42.2902 31.9315C43.7683 31.9315 45.1074 32.3683 46.073 33.1491C46.5292 33.5181 46.805 34.0603 46.9029 34.6388C47.0005 35.2149 47.0436 35.8357 47.0261 36.4288C46.993 37.5542 46.039 37.5859 44.9132 37.5859C44.1776 37.5859 43.6037 38.1018 42.3509 38.1018C41.098 38.1018 40.9525 37.5133 40.128 37.5133C39.1581 37.5133 38.9803 38.5088 38.9803 39.6292C38.9803 44.6348 43.5956 51.5184 48.502 51.5184C53.4044 51.5184 58.0157 44.6348 58.0157 39.6292C58.0157 39.4492 58.0098 39.2734 57.9957 39.1046C57.8746 37.6503 56.1059 38.1885 54.6491 38.1018C53.3963 38.1018 53.0527 37.5859 52.3132 37.5859C50.6095 37.5859 49.9344 38.4717 49.8926 36.7685C49.8781 36.1811 49.9201 35.583 50.0171 34.9928C50.1513 34.1766 50.5413 33.4004 51.2225 32.9311C52.1568 32.2874 53.3765 31.9315 54.7138 31.9315C55.7161 31.9315 56.6416 32.1088 57.4459 32.4675C57.7368 32.6005 57.8379 32.4353 57.7651 32.1854C56.779 28.9048 53.0042 26.3617 48.502 26.3617L-nan -nanZM55.6716 33.5436C54.6411 33.5436 53.441 33.845 52.6417 34.6409C52.567 34.7152 52.5116 34.8089 52.4932 34.9126C52.4249 35.2967 52.8526 35.4929 53.2289 35.3903C54.2422 35.1139 55.1672 35.0306 55.9042 35.189C56.6413 35.3474 57.6722 35.3977 57.6722 34.6438C57.6722 33.995 57.0094 33.5436 55.6716 33.5436ZM39.3319 34.6438C39.3319 35.4109 40.371 35.3831 41.1196 35.2159C41.3771 35.1584 41.6558 35.1268 41.9509 35.1198C43.4841 35.0835 44.2735 34.2228 42.8086 33.7687C42.343 33.6244 41.8376 33.5395 41.3324 33.5395C39.9947 33.5395 39.3319 33.9909 39.3319 34.6438ZM70.958 18.891C70.9571 18.8902 70.9559 18.8897 70.9546 18.8898C69.4862 18.9948 68.0984 19.264 66.7989 19.6866C65.253 20.1894 63.3522 18.6134 64.1292 17.1856C64.7845 15.9813 63.8483 14.491 62.5233 14.8436C60.944 15.2638 59.4845 15.8563 58.1612 16.621C56.4663 17.6003 54.0614 17.093 53.3611 15.2651L53.2085 14.8667C52.8986 14.058 53.1245 13.1419 53.7747 12.5699C55.1555 11.3552 54.3872 9.07752 52.5527 8.94751L52.3722 8.93472C51.5713 8.87796 50.8658 8.37176 50.5483 7.63432C49.78 5.84996 47.224 5.85199 46.4562 7.63654C46.1386 8.37471 45.4321 8.88172 44.6304 8.93803L44.4531 8.95049C42.6176 9.07942 41.8471 11.3576 43.2276 12.5742C43.8767 13.1462 44.1023 14.0612 43.7936 14.8695L43.6425 15.265C42.9444 17.0927 40.5415 17.6016 38.8477 16.6224C37.5215 15.8558 36.0591 15.262 34.4762 14.8415C33.153 14.4899 32.2175 15.977 32.871 17.1801C33.6467 18.6084 31.7427 20.1868 30.1968 19.6848C30.077 19.6459 29.9565 19.6084 29.8353 19.5721C28.4101 19.1457 27.4822 20.7777 28.3082 22.0149C29.5145 23.8216 30.5882 25.7048 31.4671 27.6756C31.6288 28.0302 31.9683 28.1471 32.332 27.9617C37.3551 25.4732 42.8891 24.1818 48.498 24.1894C54.3097 24.1894 59.794 25.5516 64.668 27.9617C65.0358 28.1471 65.3753 28.0302 65.5329 27.6796C66.9348 24.5412 68.8253 21.6283 70.9583 18.8967C70.9596 18.895 70.9595 18.8926 70.958 18.891ZM-nan -nanL78.7243 40.266C81.1737 39.4197 83.3281 39.7218 85.3254 40.4006C90.0704 42.013 91.472 38.8689 89.1317 34.4374C87.4323 31.2193 86.4728 27.7798 86.7588 24.0927C86.7912 23.6695 86.4072 23.4277 86.0435 23.6816C84.8162 24.5311 83.7573 25.6388 82.917 26.9229C81.4976 29.092 78.2484 30.3795 75.6831 30.0066C72.8511 29.5949 72.4164 32.984 74.4277 35.0199C76.0168 36.6284 77.4559 38.3841 78.7243 40.266L-nan -nanZ" fill="#035D38"/>
</svg>
