<svg width="23" height="19" viewBox="0 0 23 19" fill="none" xmlns="http://www.w3.org/2000/svg">
<path d="M-nan -nanL22.706 2.18952C22.5141 2.27455 22.3189 2.35324 22.1207 2.42539C21.6555 2.5947 21.2944 1.85603 21.5621 1.43951C21.7905 1.08405 21.3879 0.727174 20.9996 0.89391C20.5653 1.08044 20.1171 1.23371 19.6589 1.35226C19.3266 1.43822 18.9835 1.31611 18.7209 1.09507C18.0822 0.557347 17.3078 0.198818 16.4773 0.0619924C15.4646 -0.10486 14.4251 0.0673099 13.5202 0.551771C12.6154 1.03623 11.8958 1.80588 11.4732 2.74122C10.8441 4.13348 9.64772 5.64633 8.17979 5.22289C7.38323 4.99311 6.60789 4.68834 5.86442 4.31142C4.94218 3.84386 4.08048 3.2711 3.29576 2.60638C2.39165 1.84053 0.951 2.01364 0.951 3.19852C0.950554 3.96551 1.13943 4.72076 1.50088 5.39725C1.62743 5.63412 1.77378 5.85876 1.93791 6.06899C2.20101 6.40597 1.97081 6.94157 1.56947 6.79425C1.36254 6.7183 1.16072 6.62751 0.965632 6.52233C0.941941 6.50956 0.913 6.5266 0.913 6.55352C0.912925 7.62926 1.28503 8.6719 1.96618 9.50451C2.32354 9.94134 2.75442 10.3062 3.23558 10.5852C3.56303 10.7751 3.5238 11.2986 3.14596 11.2762C2.87417 11.26 2.65148 11.5169 2.7676 11.7632C3.09335 12.454 3.58537 13.0572 4.20337 13.5164C4.98089 14.0942 5.29201 15.5067 4.38406 15.8443C3.34429 16.231 2.23676 16.4322 1.112 16.4305C0.838821 16.4306 0.720428 16.8002 0.961871 16.928C2.8602 17.9328 4.9809 18.4609 7.14 18.4585C15.71 18.4585 20.395 11.3605 20.395 5.20452C20.395 4.82866 20.5675 4.47351 20.8574 4.23434C21.5683 3.648 22.1906 2.96033 22.704 2.19252L22.706 2.18952L-nan -nanZ" fill="#047044"/>
</svg>
